<?xml version="1.0" encoding="UTF-8" standalone="no"?>
<svg
   xmlns:dc="http://purl.org/dc/elements/1.1/"
   xmlns:cc="http://creativecommons.org/ns#"
   xmlns:rdf="http://www.w3.org/1999/02/22-rdf-syntax-ns#"
   xmlns:svg="http://www.w3.org/2000/svg"
   xmlns="http://www.w3.org/2000/svg"
   xmlns:sodipodi="http://sodipodi.sourceforge.net/DTD/sodipodi-0.dtd"
   xmlns:inkscape="http://www.inkscape.org/namespaces/inkscape"
   width="99.64743mm"
   height="19.385204mm"
   viewBox="0 0 99.64743 19.385204"
   version="1.1"
   id="svg3924"
   inkscape:version="1.0.1 (3bc2e813f5, 2020-09-07)"
   sodipodi:docname="gras.svg">
  <defs
     id="defs3918" />
  <sodipodi:namedview
     id="base"
     pagecolor="#ffffff"
     bordercolor="#666666"
     borderopacity="1.0"
     inkscape:pageopacity="0.0"
     inkscape:pageshadow="2"
     inkscape:zoom="1.979899"
     inkscape:cx="207.12872"
     inkscape:cy="103.04937"
     inkscape:document-units="mm"
     inkscape:current-layer="layer1"
     inkscape:document-rotation="0"
     showgrid="false"
     inkscape:window-width="1600"
     inkscape:window-height="852"
     inkscape:window-x="0"
     inkscape:window-y="1"
     inkscape:window-maximized="1" />
  <metadata
     id="metadata3921">
    <rdf:RDF>
      <cc:Work
         rdf:about="">
        <dc:format>image/svg+xml</dc:format>
        <dc:type
           rdf:resource="http://purl.org/dc/dcmitype/StillImage" />
        <dc:title />
      </cc:Work>
    </rdf:RDF>
  </metadata>
  <g
     inkscape:label="Ebene 1"
     inkscape:groupmode="layer"
     id="layer1"
     transform="translate(-56.344762,-138.43215)">
    <g
       id="g901"
       transform="translate(0.16204357,1.6072672)">
      <path
         style="display:inline;fill:#2ab22e;fill-opacity:1;stroke-width:0.0882256"
         d="m 87.913983,157.70512 h 34.381457 c 0.21284,0 0.38299,-0.25584 0.37855,-0.56906 0.18153,-1.56713 -0.33578,-5.87891 -0.29094,-10.00533 0.0133,-1.22111 1.56958,-2.73961 1.98895,-3.49229 0.0481,-0.0864 -0.0112,-0.21067 -0.0828,-0.17363 -1.05088,0.43715 -3.84648,1.91588 -3.87164,4.47305 -0.0242,0.10319 -0.12427,0.0979 -0.14346,-0.007 -1.46713,-2.8537 -0.9365,-3.76528 -0.94841,-5.20429 -0.018,-0.0991 -0.11001,-0.11218 -0.14055,-0.0199 -0.35362,1.06072 -0.75042,1.5547 -1.05973,3.19695 -0.0252,0.076 -0.0966,0.0842 -0.1295,0.015 -1.14936,-0.46136 -1.3901,-2.74788 -2.02115,-4.2504 -0.038,-0.0801 -0.12274,-0.0538 -0.13568,0.042 0.16075,2.56145 0.62214,5.28099 -0.93779,6.93759 -0.0157,0.11615 -0.12754,0.12021 -0.14703,0.005 -0.61699,-0.33395 -0.84086,-0.26293 -1.14611,-1.43423 -0.43506,-1.66936 -0.78637,-5.02461 -0.54622,-8.50767 -0.0188,-0.11058 0.0207,-0.10983 0,0 -0.84041,2.47664 -1.83726,4.93489 -1.56938,7.54186 -0.0189,0.1002 -0.11271,0.11048 -0.1415,0.0155 l -1.64507,-5.42898 c -0.0285,-0.094 -0.12107,-0.0852 -0.14107,0.0134 l -1.31931,6.49559 c -0.022,0.10865 -0.12754,0.10437 -0.1455,-0.006 -0.36251,-1.32387 -0.56798,-3.052 -0.77746,-4.76978 -0.017,-0.10427 -0.11467,-0.11594 -0.14281,-0.017 -0.80025,2.36638 -1.86804,4.23295 -2.1537,7.56071 -0.0258,0.0906 -0.11292,0.0908 -0.13896,3.2e-4 -0.19002,-3.73979 -1.18079,-7.31784 -2.88207,-10.02096 -0.0334,-0.11614 -0.15161,-0.0741 -0.14456,0.0516 0.50069,2.12733 1.24993,7.73498 -1.07587,9.68087 -0.0374,0.0679 -0.1103,0.0514 -0.13045,-0.0307 -0.932872,-1.92416 -1.334574,-3.84833 -1.416601,-5.77249 -0.02487,-0.10127 -0.12325,-0.0963 -0.143391,0.007 -1.007644,3.55678 -1.255521,5.21976 -1.180069,6.07682 -0.0184,0.0946 -0.104853,0.11047 -0.137865,0.0249 -0.424575,-1.10279 -2.182863,-6.06472 -1.305719,-10.52268 0,0 -2.298913,4.44533 -2.377153,7.72021 -0.0029,0.12064 -0.116632,0.14697 -0.145572,0.034 l -0.951749,-3.71506 c -0.02567,-0.1003 -0.123467,-0.094 -0.1431,0.009 l -1.158546,6.08303 c -0.02232,0.11722 -0.138446,0.10394 -0.147463,-0.0171 -0.127103,-1.70397 -0.792069,-6.4896 -4.269742,-9.93715 3.358525,7.81399 0.652697,11.52419 0.269258,17.2297 -0.05693,0.35047 0.122741,0.68724 0.367495,0.68724 z"
         id="path3768"
         sodipodi:nodetypes="sscsscccccccccccscccccccccccccccccccccccccccccs" />
      <g
         id="g3778"
         style="display:inline"
         transform="matrix(0.0727136,0,0,0.10704666,87.160161,120.76214)">
        <ellipse
           style="fill:#5cfa45;fill-opacity:1"
           cx="96.578003"
           cy="288.51801"
           id="circle3772"
           rx="8.8999996"
           ry="8.208703" />
        <circle
           style="fill:#5cfa45;fill-opacity:1"
           cx="121.458"
           cy="313.39801"
           r="8.8999996"
           id="circle3774" />
        <circle
           style="fill:#5cfa45;fill-opacity:1"
           cx="418.478"
           cy="275.578"
           r="8.8999996"
           id="circle3776" />
      </g>
      <path
         style="display:inline;fill:#2ab22e;fill-opacity:1;stroke-width:0.0882256"
         d="m 119.51675,157.81735 h 34.38146 c 0.21284,0 0.38299,-0.25584 0.37855,-0.56906 0.18153,-1.56713 -0.33578,-5.87891 -0.29094,-10.00533 0.0133,-1.22111 1.56958,-2.73961 1.98895,-3.49229 0.0481,-0.0864 -0.0112,-0.21067 -0.0828,-0.17363 -1.05088,0.43715 -3.84648,1.91588 -3.87164,4.47305 -0.0242,0.10319 -0.12427,0.0979 -0.14346,-0.007 -1.46713,-2.8537 -0.9365,-3.76528 -0.94841,-5.20429 -0.018,-0.0991 -0.11001,-0.11218 -0.14055,-0.0199 -0.35362,1.06072 -0.75042,1.5547 -1.05973,3.19695 -0.0252,0.076 -0.0966,0.0842 -0.1295,0.015 -1.14936,-0.46136 -1.3901,-2.74788 -2.02115,-4.2504 -0.038,-0.0801 -0.12274,-0.0538 -0.13568,0.042 0.16075,2.56145 0.62214,5.28099 -0.93779,6.93759 -0.0157,0.11615 -0.12754,0.12021 -0.14703,0.005 -0.61699,-0.33395 -0.84086,-0.26293 -1.14611,-1.43423 -0.43506,-1.66936 -0.78637,-5.02461 -0.54622,-8.50767 -0.0188,-0.11058 0.0207,-0.10983 0,0 -0.84041,2.47664 -1.83726,4.93489 -1.56938,7.54186 -0.0189,0.1002 -0.11271,0.11048 -0.1415,0.0155 l -1.64507,-5.42898 c -0.0285,-0.094 -0.12107,-0.0852 -0.14107,0.0134 l -1.31931,6.49559 c -0.022,0.10865 -0.12754,0.10437 -0.1455,-0.006 -0.36251,-1.32387 -0.56798,-3.052 -0.77746,-4.76978 -0.017,-0.10427 -0.11467,-0.11594 -0.14281,-0.017 -0.80025,2.36638 -1.86804,4.23295 -2.1537,7.56071 -0.0258,0.0906 -0.11292,0.0908 -0.13896,3.2e-4 -0.19002,-3.73979 -1.18079,-7.31784 -2.88207,-10.02096 -0.0334,-0.11614 -0.15161,-0.0741 -0.14456,0.0516 0.50069,2.12733 1.24993,7.73498 -1.07587,9.68087 -0.0374,0.0679 -0.1103,0.0514 -0.13045,-0.0307 -0.93287,-1.92416 -1.33458,-3.84833 -1.4166,-5.77249 -0.0249,-0.10127 -0.12325,-0.0963 -0.14339,0.007 -1.00765,3.55678 -1.25553,5.21976 -1.18007,6.07682 -0.0184,0.0946 -0.10486,0.11047 -0.13787,0.0249 -0.42457,-1.10279 -2.18286,-6.06472 -1.30572,-10.52268 0,0 -2.29891,4.44533 -2.37715,7.72021 -0.003,0.12064 -0.11663,0.14697 -0.14557,0.034 l -0.95175,-3.71506 c -0.0257,-0.1003 -0.12347,-0.094 -0.1431,0.009 l -1.15855,6.08303 c -0.0223,0.11722 -0.13844,0.10394 -0.14746,-0.0171 -0.1271,-1.70397 -0.79207,-6.4896 -4.26974,-9.93715 3.35852,7.81399 0.65269,11.52419 0.26926,17.2297 -0.0569,0.35047 0.12274,0.68724 0.36749,0.68724 z"
         id="path851"
         sodipodi:nodetypes="sscsscccccccccccscccccccccccccccccccccccccccccs" />
      <g
         id="g861"
         style="display:inline"
         transform="matrix(0.0727136,0,0,0.10704666,117.84505,120.80216)">
        <ellipse
           style="fill:#5cfa45;fill-opacity:1"
           cx="96.578003"
           cy="288.51801"
           id="ellipse855"
           rx="8.8999996"
           ry="8.208703" />
        <circle
           style="fill:#5cfa45;fill-opacity:1"
           cx="121.458"
           cy="313.39801"
           r="8.8999996"
           id="circle857" />
        <circle
           style="fill:#5cfa45;fill-opacity:1"
           cx="418.478"
           cy="275.578"
           r="8.8999996"
           id="circle859" />
      </g>
      <path
         style="display:inline;fill:#2ab22e;fill-opacity:1;stroke-width:0.0882256"
         d="m 56.981492,157.50901 h 34.38146 c 0.21284,0 0.38299,-0.25584 0.37855,-0.56906 0.18153,-1.56713 -0.33578,-5.87891 -0.29094,-10.00533 0.0133,-1.22111 1.56958,-2.73961 1.98895,-3.49229 0.0481,-0.0864 -0.0112,-0.21067 -0.0828,-0.17363 -1.05088,0.43715 -3.84648,1.91588 -3.87164,4.47305 -0.0242,0.10319 -0.12427,0.0979 -0.14346,-0.007 -1.46713,-2.8537 -0.9365,-3.76528 -0.94841,-5.20429 -0.018,-0.0991 -0.11001,-0.11218 -0.14055,-0.0199 -0.35362,1.06072 -0.75042,1.5547 -1.05973,3.19695 -0.0252,0.076 -0.0966,0.0842 -0.1295,0.015 -1.14936,-0.46136 -1.3901,-2.74788 -2.02115,-4.2504 -0.038,-0.0801 -0.12274,-0.0538 -0.13568,0.042 0.16075,2.56145 0.62214,5.28099 -0.93779,6.93759 -0.0157,0.11615 -0.12754,0.12021 -0.14703,0.005 -0.61699,-0.33395 -0.84086,-0.26293 -1.14611,-1.43423 -0.43506,-1.66936 -0.78637,-5.02461 -0.54622,-8.50767 -0.0188,-0.11058 0.0207,-0.10983 0,0 -0.84041,2.47664 -1.83726,4.93489 -1.56938,7.54186 -0.0189,0.1002 -0.11271,0.11048 -0.1415,0.0155 l -1.64507,-5.42898 c -0.0285,-0.094 -0.12107,-0.0852 -0.14107,0.0134 l -1.31931,6.49559 c -0.022,0.10865 -0.12754,0.10437 -0.1455,-0.006 -0.36251,-1.32387 -0.56798,-3.052 -0.77746,-4.76978 -0.017,-0.10427 -0.11467,-0.11594 -0.14281,-0.017 -0.80025,2.36638 -1.86804,4.23295 -2.1537,7.56071 -0.0258,0.0906 -0.11292,0.0908 -0.13896,3.2e-4 -0.19002,-3.73979 -1.18079,-7.31784 -2.88207,-10.02096 -0.0334,-0.11614 -0.15161,-0.0741 -0.14456,0.0516 0.50069,2.12733 1.24993,7.73498 -1.07587,9.68087 -0.0374,0.0679 -0.1103,0.0514 -0.13045,-0.0307 -0.93287,-1.92416 -1.33458,-3.84833 -1.4166,-5.77249 -0.0249,-0.10127 -0.12325,-0.0963 -0.14339,0.007 -1.00765,3.55678 -1.25553,5.21976 -1.18007,6.07682 -0.0184,0.0946 -0.10486,0.11047 -0.13787,0.0249 -0.42457,-1.10279 -2.18286,-6.06472 -1.30572,-10.52268 0,0 -2.29891,4.44533 -2.37715,7.72021 -0.003,0.12064 -0.11663,0.14697 -0.14557,0.034 l -0.95175,-3.71506 c -0.0257,-0.1003 -0.12347,-0.094 -0.1431,0.009 l -1.15855,6.08303 c -0.0223,0.11722 -0.13844,0.10394 -0.14746,-0.0171 -0.1271,-1.70397 -0.79207,-6.4896 -4.26974,-9.93715 3.35852,7.81399 0.65269,11.52419 0.26926,17.2297 -0.0569,0.35047 0.12274,0.68724 0.36749,0.68724 z"
         id="path876"
         sodipodi:nodetypes="sscsscccccccccccscccccccccccccccccccccccccccccs" />
      <g
         id="g884"
         style="display:inline"
         transform="matrix(0.0727136,0,0,0.10704666,55.309792,120.49382)">
        <ellipse
           style="fill:#5cfa45;fill-opacity:1"
           cx="96.578003"
           cy="288.51801"
           id="ellipse878"
           rx="8.8999996"
           ry="8.208703" />
        <circle
           style="fill:#5cfa45;fill-opacity:1"
           cx="121.458"
           cy="313.39801"
           r="8.8999996"
           id="circle880" />
        <circle
           style="fill:#5cfa45;fill-opacity:1"
           cx="418.478"
           cy="275.578"
           r="8.8999996"
           id="circle882" />
      </g>
    </g>
  </g>
</svg>
